{
  "accessors": [
    {
      "bufferView": 2,
      "componentType": 5126,
      "count": 25337,
      "max": [
        4.729400157928467,
        4.703000068664551,
        13.937859535217285
      ],
      "min": [
        -4.729400157928467,
        -4.703000068664551,
        0.0
      ],
      "type": "VEC3"
    },
    {
      "bufferView": 2,
      "byteOffset": 304044,
      "componentType": 5126,
      "count": 25337,
      "max": [
        0.9998444318771362,
        0.9998444318771362,
        1.0
      ],
      "min": [
        -0.9998444318771362,
        -0.9998444318771362,
        -1.0
      ],
      "type": "VEC3"
    },
    {
      "bufferView": 1,
      "componentType": 5126,
      "count": 25337,
      "max": [
        0.9956499934196472,
        0.9947900176048279
      ],
      "min": [
        0.009060000069439411,
        0.007280000019818544
      ],
      "type": "VEC2"
    },
    {
      "bufferView": 0,
      "componentType": 5125,
      "count": 146688,
      "type": "SCALAR"
    },
    {
      "bufferView": 2,
      "byteOffset": 608088,
      "componentType": 5126,
      "count": 32285,
      "max": [
        4.940770149230957,
        4.9403300285339355,
        15.505680084228516
      ],
      "min": [
        -4.940770149230957,
        -4.9403300285339355,
        13.31659984588623
      ],
      "type": "VEC3"
    },
    {
      "bufferView": 2,
      "byteOffset": 995508,
      "componentType": 5126,
      "count": 32285,
      "max": [
        0.9999901056289673,
        0.9999901056289673,
        1.0
      ],
      "min": [
        -0.9999750256538391,
        -0.9999901056289673,
        -1.0
      ],
      "type": "VEC3"
    },
    {
      "bufferView": 1,
      "byteOffset": 202696,
      "componentType": 5126,
      "count": 32285,
      "max": [
        0.9797999858856201,
        0.9918100237846375
      ],
      "min": [
        0.010379999876022339,
        0.009290000423789024
      ],
      "type": "VEC2"
    },
    {
      "bufferView": 0,
      "byteOffset": 586752,
      "componentType": 5125,
      "count": 184608,
      "type": "SCALAR"
    }
  ],
  "asset": {
    "extras": {
      "author": "Mohammad11qwe (https://sketchfab.com/Mohammad11qwe)",
      "license": "CC-BY-4.0 (http://creativecommons.org/licenses/by/4.0/)",
      "source": "https://sketchfab.com/3d-models/coffee-cup-with-lid-ad4158ff8d634a75a5e932925f2fc162",
      "title": "Coffee cup with lid"
    },
    "generator": "Sketchfab-16.29.0",
    "version": "2.0"
  },
  "bufferViews": [
    {
      "buffer": 0,
      "byteLength": 1325184,
      "name": "floatBufferViews",
      "target": 34963
    },
    {
      "buffer": 0,
      "byteLength": 460976,
      "byteOffset": 1325184,
      "byteStride": 8,
      "name": "floatBufferViews",
      "target": 34962
    },
    {
      "buffer": 0,
      "byteLength": 1382928,
      "byteOffset": 1786160,
      "byteStride": 12,
      "name": "floatBufferViews",
      "target": 34962
    }
  ],
  "buffers": [
    {
      "byteLength": 3169088,
      "uri": "scene.bin"
    }
  ],
  "extensionsUsed": [
    "KHR_materials_specular"
  ],
  "images": [
    {
      "uri": "textures/Black_Paper_material_baseColor.png"
    }
  ],
  "materials": [
    {
      "doubleSided": true,
      "extensions": {
        "KHR_materials_specular": {
          "specularColorFactor": [
            1.0,
            1.0,
            1.0
          ],
          "specularFactor": 1.0
        }
      },
      "name": "Black_Paper_material",
      "pbrMetallicRoughness": {
        "baseColorFactor": [
          0.21790542599748874,
          0.21790542599748874,
          0.21790542599748874,
          1.0
        ],
        "baseColorTexture": {
          "index": 0
        }
      }
    },
    {
      "doubleSided": true,
      "extensions": {
        "KHR_materials_specular": {
          "specularColorFactor": [
            1.0,
            1.0,
            1.0
          ],
          "specularFactor": 1.0
        }
      },
      "name": "glass_material",
      "pbrMetallicRoughness": {
        "baseColorTexture": {
          "index": 0
        },
        "metallicFactor": 0.565335056259219,
        "roughnessFactor": 0.6
      }
    }
  ],
  "meshes": [
    {
      "name": "Object_0",
      "primitives": [
        {
          "attributes": {
            "NORMAL": 1,
            "POSITION": 0,
            "TEXCOORD_0": 2
          },
          "indices": 3,
          "material": 0,
          "mode": 4
        }
      ]
    },
    {
      "name": "Object_1",
      "primitives": [
        {
          "attributes": {
            "NORMAL": 5,
            "POSITION": 4,
            "TEXCOORD_0": 6
          },
          "indices": 7,
          "material": 1,
          "mode": 4
        }
      ]
    }
  ],
  "nodes": [
    {
      "children": [
        1
      ],
      "matrix": [
        1.0,
        0.0,
        0.0,
        0.0,
        0.0,
        2.220446049250313e-16,
        -1.0,
        0.0,
        0.0,
        1.0,
        2.220446049250313e-16,
        0.0,
        0.0,
        0.0,
        0.0,
        1.0
      ],
      "name": "Sketchfab_model"
    },
    {
      "children": [
        2,
        3
      ],
      "name": "xzxz.obj.cleaner.materialmerger.gles"
    },
    {
      "mesh": 0,
      "name": "Object_2"
    },
    {
      "mesh": 1,
      "name": "Object_3"
    }
  ],
  "samplers": [
    {
      "magFilter": 9729,
      "minFilter": 9987,
      "wrapS": 10497,
      "wrapT": 10497
    }
  ],
  "scene": 0,
  "scenes": [
    {
      "name": "Sketchfab_Scene",
      "nodes": [
        0
      ]
    }
  ],
  "textures": [
    {
      "sampler": 0,
      "source": 0
    }
  ]
}
